<svg width="40" height="40" viewBox="0 0 40 40" fill="none" xmlns="http://www.w3.org/2000/svg">
<g clip-path="url(#clip0_2615_238)">
<path d="M0.00619317 19.7464C0.0714036 18.4433 0.643415 17.2173 1.60012 16.3301C2.55682 15.4429 3.82242 14.9649 5.12676 14.9979C6.4311 15.031 7.67083 15.5727 8.58132 16.5072C9.4918 17.4418 10.0009 18.6952 9.99996 20V28.3333C9.99996 27.8913 10.1756 27.4674 10.4881 27.1548C10.8007 26.8422 11.2246 26.6667 11.6666 26.6667H28.3333C28.7753 26.6667 29.1993 26.8422 29.5118 27.1548C29.8244 27.4674 30 27.8913 30 28.3333V20C30 19.0833 30.2521 18.1843 30.7286 17.4013C31.2051 16.6182 31.8876 15.9812 32.7017 15.5598C33.5158 15.1385 34.43 14.949 35.3445 15.0122C36.2589 15.0754 37.1385 15.3887 37.8869 15.9179C38.6353 16.4472 39.2238 17.172 39.5881 18.0131C39.9525 18.8543 40.0785 19.7794 39.9526 20.6873C39.8266 21.5953 39.4535 22.4511 38.874 23.1614C38.2945 23.8716 37.5309 24.4088 36.6667 24.7144V33.3333C36.6667 33.7753 36.4911 34.1993 36.1785 34.5118C35.8659 34.8244 35.442 35 35 35H33.3333V38.3333H30V35H9.99996V38.3333H6.66662V35H4.99995C4.55792 35 4.134 34.8244 3.82144 34.5118C3.50887 34.1993 3.33328 33.7753 3.33328 33.3333V24.7144C2.31761 24.3551 1.44509 23.6775 0.845606 22.7823C0.246118 21.8872 -0.0482925 20.8224 0.00619317 19.7464V19.7464Z" fill="#029FAE"/>
<path d="M28.3333 19.9998V24.9998H11.6666V19.9998C11.6647 18.5223 11.1729 17.087 10.2681 15.9189C9.36334 14.7507 8.09673 13.9156 6.66659 13.5442V9.99984C6.66907 7.79046 7.54784 5.67229 9.11011 4.11002C10.6724 2.54776 12.7905 1.66899 14.9999 1.6665H24.9999C27.2093 1.66899 29.3275 2.54776 30.8897 4.11002C32.452 5.67229 33.3308 7.79046 33.3333 9.99984V13.5442C31.9031 13.9156 30.6365 14.7507 29.7317 15.9189C28.827 17.087 28.3351 18.5223 28.3333 19.9998V19.9998ZM16.6666 8.33317C16.337 8.33317 16.0147 8.43092 15.7406 8.61405C15.4666 8.79719 15.2529 9.05749 15.1268 9.36203C15.0006 9.66657 14.9676 10.0017 15.0319 10.325C15.0963 10.6483 15.255 10.9453 15.4881 11.1783C15.7212 11.4114 16.0181 11.5702 16.3414 11.6345C16.6647 11.6988 16.9999 11.6658 17.3044 11.5396C17.6089 11.4135 17.8692 11.1999 18.0524 10.9258C18.2355 10.6517 18.3333 10.3295 18.3333 9.99984C18.3333 9.55781 18.1577 9.13389 17.8451 8.82133C17.5325 8.50876 17.1086 8.33317 16.6666 8.33317V8.33317ZM16.6666 13.3332C16.337 13.3332 16.0147 13.4309 15.7406 13.6141C15.4666 13.7972 15.2529 14.0575 15.1268 14.362C15.0006 14.6666 14.9676 15.0017 15.0319 15.325C15.0963 15.6483 15.255 15.9453 15.4881 16.1783C15.7212 16.4114 16.0181 16.5702 16.3414 16.6345C16.6647 16.6988 16.9999 16.6658 17.3044 16.5396C17.6089 16.4135 17.8692 16.1999 18.0524 15.9258C18.2355 15.6517 18.3333 15.3295 18.3333 14.9998C18.3333 14.5578 18.1577 14.1339 17.8451 13.8213C17.5325 13.5088 17.1086 13.3332 16.6666 13.3332V13.3332ZM23.3333 8.33317C23.0036 8.33317 22.6814 8.43092 22.4073 8.61405C22.1332 8.79719 21.9196 9.05749 21.7935 9.36203C21.6673 9.66657 21.6343 10.0017 21.6986 10.325C21.7629 10.6483 21.9217 10.9453 22.1547 11.1783C22.3878 11.4114 22.6848 11.5702 23.0081 11.6345C23.3314 11.6988 23.6665 11.6658 23.9711 11.5396C24.2756 11.4135 24.5359 11.1999 24.719 10.9258C24.9022 10.6517 24.9999 10.3295 24.9999 9.99984C24.9999 9.55781 24.8243 9.13389 24.5118 8.82133C24.1992 8.50876 23.7753 8.33317 23.3333 8.33317V8.33317ZM23.3333 13.3332C23.0036 13.3332 22.6814 13.4309 22.4073 13.6141C22.1332 13.7972 21.9196 14.0575 21.7935 14.362C21.6673 14.6666 21.6343 15.0017 21.6986 15.325C21.7629 15.6483 21.9217 15.9453 22.1547 16.1783C22.3878 16.4114 22.6848 16.5702 23.0081 16.6345C23.3314 16.6988 23.6665 16.6658 23.9711 16.5396C24.2756 16.4135 24.5359 16.1999 24.719 15.9258C24.9022 15.6517 24.9999 15.3295 24.9999 14.9998C24.9999 14.5578 24.8243 14.1339 24.5118 13.8213C24.1992 13.5088 23.7753 13.3332 23.3333 13.3332V13.3332Z" fill="#029FAE"/>
</g>
<defs>
<clipPath id="clip0_2615_238">
<rect width="40" height="40" fill="white" transform="matrix(-1 0 0 1 40 0)"/>
</clipPath>
</defs>
</svg>
